<svg width="961" height="320" viewBox="0 0 961 320" fill="none" xmlns="http://www.w3.org/2000/svg">
<rect width="320" height="320" rx="32" fill="#1D4ED8"/>
<path fill-rule="evenodd" clip-rule="evenodd" d="M141.541 100.071C125.613 108.631 114.483 122.57 109.156 138.476L72.197 126.097C80.5496 101.159 98.0821 79.1772 123.09 65.7382C175.235 37.7162 240.223 57.2717 268.245 109.417C296.267 161.561 276.712 226.549 224.567 254.571C187.516 274.482 144.011 270.353 111.909 247.671L134.401 215.838C154.9 230.322 182.58 232.886 206.116 220.238C239.3 202.406 251.744 161.05 233.912 127.867C216.08 94.6837 174.724 82.2393 141.541 100.071Z" fill="white"/>
<path d="M38.4705 92.9535L155.401 144.111L57.9588 190.395L38.4705 92.9535Z" fill="white"/>
<path d="M376 224.917V98.5278H406.081L408.356 123.3C411.558 114.706 416.36 108.049 422.764 103.331C429.336 98.4435 437.594 96 447.536 96C453.435 96 457.985 96.9269 461.187 98.7806L457.142 127.85C455.457 127.344 453.35 126.923 450.823 126.586C448.463 126.081 445.346 125.828 441.47 125.828C436.246 125.828 431.274 127.092 426.556 129.619C422.006 131.979 418.214 135.686 415.181 140.742C412.147 145.629 410.631 151.864 410.631 159.447V224.917H376Z" fill="#1F2937"/>
<path d="M526.178 227.444C506.293 227.444 490.368 221.715 478.403 210.256C466.438 198.628 460.456 182.45 460.456 161.722C460.456 147.904 463.152 136.107 468.545 126.333C473.937 116.559 481.437 109.06 491.042 103.836C500.816 98.612 511.939 96 524.409 96C537.216 96 548.086 98.612 557.018 103.836C565.949 108.892 572.774 115.885 577.493 124.817C582.211 133.58 584.57 143.606 584.57 154.897C584.57 158.268 584.486 161.469 584.318 164.503C584.149 167.536 583.896 170.232 583.559 172.592H494.328C495.676 182.366 499.047 189.696 504.439 194.583C510.001 199.302 517.163 201.661 525.926 201.661C533.341 201.661 539.323 200.229 543.873 197.364C548.423 194.499 551.962 190.539 554.49 185.483L582.043 196.1C577.998 206.043 570.92 213.794 560.809 219.356C550.698 224.748 539.154 227.444 526.178 227.444ZM524.156 121.531C507.81 121.531 497.951 130.546 494.581 148.578H551.456C550.445 139.815 547.58 133.158 542.862 128.608C538.312 123.89 532.077 121.531 524.156 121.531Z" fill="#1F2937"/>
<path d="M601.28 278V98.5278H632.371L633.888 123.3C637.427 115.211 642.82 108.639 650.066 103.583C657.481 98.5278 666.159 96 676.102 96C686.382 96 695.566 98.612 703.655 103.836C711.744 109.06 718.063 116.559 722.613 126.333C727.332 135.939 729.691 147.651 729.691 161.469C729.691 175.288 727.332 187.169 722.613 197.111C717.895 206.885 711.407 214.384 703.15 219.608C695.061 224.832 685.792 227.444 675.344 227.444C666.075 227.444 658.071 225.254 651.33 220.872C644.758 216.491 639.618 210.677 635.91 203.431V278H601.28ZM665.233 200.903C674.501 200.903 681.748 197.617 686.972 191.044C692.364 184.304 695.061 174.53 695.061 161.722C695.061 148.915 692.449 139.225 687.224 132.653C682.169 125.912 675.007 122.542 665.738 122.542C656.807 122.542 649.56 125.996 643.999 132.906C638.607 139.815 635.91 149.42 635.91 161.722C635.91 173.856 638.522 183.461 643.746 190.539C649.139 197.448 656.301 200.903 665.233 200.903Z" fill="#1F2937"/>
<path d="M747.121 224.917V98.5278H777.202L779.477 123.3C782.679 114.706 787.482 108.049 793.885 103.331C800.458 98.4435 808.715 96 818.658 96C824.556 96 829.106 96.9269 832.308 98.7806L828.263 127.85C826.578 127.344 824.472 126.923 821.944 126.586C819.585 126.081 816.467 125.828 812.591 125.828C807.367 125.828 802.396 127.092 797.677 129.619C793.127 131.979 789.335 135.686 786.302 140.742C783.269 145.629 781.752 151.864 781.752 159.447V224.917H747.121Z" fill="#1F2937"/>
<path d="M896.289 96C908.927 96 920.134 98.612 929.908 103.836C939.682 109.06 947.266 116.559 952.658 126.333C958.219 136.107 961 147.904 961 161.722C961 175.541 958.219 187.337 952.658 197.111C947.266 206.885 939.682 214.384 929.908 219.608C920.134 224.832 908.927 227.444 896.289 227.444C883.481 227.444 872.19 224.832 862.416 219.608C852.811 214.384 845.227 206.885 839.666 197.111C834.273 187.337 831.577 175.541 831.577 161.722C831.577 147.904 834.273 136.107 839.666 126.333C845.227 116.559 852.811 109.06 862.416 103.836C872.19 98.612 883.481 96 896.289 96ZM896.289 121.783C886.851 121.783 879.437 125.154 874.044 131.894C868.82 138.467 866.208 148.409 866.208 161.722C866.208 175.035 868.82 185.062 874.044 191.803C879.437 198.375 886.851 201.661 896.289 201.661C905.557 201.661 912.803 198.375 918.028 191.803C923.42 185.062 926.116 175.035 926.116 161.722C926.116 148.409 923.42 138.467 918.028 131.894C912.803 125.154 905.557 121.783 896.289 121.783Z" fill="#1F2937"/>
</svg>
