<svg width="427" height="118" viewBox="0 0 427 118" fill="none" xmlns="http://www.w3.org/2000/svg">
<path d="M130.034 90.28V26.28H145.266L146.418 38.824C148.04 34.472 150.472 31.1013 153.714 28.712C157.042 26.2373 161.224 25 166.258 25C169.245 25 171.549 25.4693 173.17 26.408L171.122 41.128C170.269 40.872 169.202 40.6587 167.922 40.488C166.728 40.232 165.149 40.104 163.186 40.104C160.541 40.104 158.024 40.744 155.634 42.024C153.33 43.2187 151.41 45.096 149.874 47.656C148.338 50.1307 147.57 53.288 147.57 57.128V90.28H130.034Z" fill="#1F2937"/>
<path d="M206.08 91.56C196.011 91.56 187.947 88.6587 181.888 82.856C175.83 76.968 172.8 68.776 172.8 58.28C172.8 51.2827 174.166 45.3093 176.896 40.36C179.627 35.4107 183.424 31.6133 188.288 28.968C193.238 26.3227 198.87 25 205.184 25C211.67 25 217.174 26.3227 221.696 28.968C226.219 31.528 229.675 35.0693 232.064 39.592C234.454 44.0293 235.648 49.1067 235.648 54.824C235.648 56.5307 235.606 58.152 235.52 59.688C235.435 61.224 235.307 62.5893 235.136 63.784H189.952C190.635 68.7333 192.342 72.4453 195.072 74.92C197.888 77.3093 201.515 78.504 205.952 78.504C209.707 78.504 212.736 77.7787 215.04 76.328C217.344 74.8773 219.136 72.872 220.416 70.312L234.368 75.688C232.32 80.7227 228.736 84.648 223.616 87.464C218.496 90.1947 212.651 91.56 206.08 91.56ZM205.056 37.928C196.779 37.928 191.787 42.4933 190.08 51.624H218.88C218.368 47.1867 216.918 43.816 214.528 41.512C212.224 39.1227 209.067 37.928 205.056 37.928Z" fill="#1F2937"/>
<path d="M244.109 117.16V26.28H259.853L260.621 38.824C262.413 34.728 265.144 31.4 268.813 28.84C272.568 26.28 276.963 25 281.997 25C287.203 25 291.853 26.3227 295.949 28.968C300.045 31.6133 303.245 35.4107 305.549 40.36C307.939 45.224 309.133 51.1547 309.133 58.152C309.133 65.1493 307.939 71.1653 305.549 76.2C303.16 81.1493 299.875 84.9467 295.693 87.592C291.597 90.2373 286.904 91.56 281.613 91.56C276.92 91.56 272.867 90.4507 269.453 88.232C266.125 86.0133 263.523 83.0693 261.645 79.4V117.16H244.109ZM276.493 78.12C281.187 78.12 284.856 76.456 287.501 73.128C290.232 69.7147 291.597 64.7653 291.597 58.28C291.597 51.7947 290.275 46.888 287.629 43.56C285.069 40.1467 281.443 38.44 276.749 38.44C272.227 38.44 268.557 40.1893 265.741 43.688C263.011 47.1867 261.645 52.0507 261.645 58.28C261.645 64.424 262.968 69.288 265.613 72.872C268.344 76.3707 271.971 78.12 276.493 78.12Z" fill="#1F2937"/>
<path d="M317.959 90.28V26.28H333.191L334.343 38.824C335.965 34.472 338.397 31.1013 341.639 28.712C344.967 26.2373 349.149 25 354.183 25C357.17 25 359.474 25.4693 361.095 26.408L359.047 41.128C358.194 40.872 357.127 40.6587 355.847 40.488C354.653 40.232 353.074 40.104 351.111 40.104C348.466 40.104 345.949 40.744 343.559 42.024C341.255 43.2187 339.335 45.096 337.799 47.656C336.263 50.1307 335.495 53.288 335.495 57.128V90.28H317.959Z" fill="#1F2937"/>
<path d="M393.493 25C399.893 25 405.568 26.3227 410.517 28.968C415.467 31.6133 419.307 35.4107 422.037 40.36C424.853 45.3093 426.261 51.2827 426.261 58.28C426.261 65.2773 424.853 71.2507 422.037 76.2C419.307 81.1493 415.467 84.9467 410.517 87.592C405.568 90.2373 399.893 91.56 393.493 91.56C387.008 91.56 381.291 90.2373 376.341 87.592C371.477 84.9467 367.637 81.1493 364.821 76.2C362.091 71.2507 360.725 65.2773 360.725 58.28C360.725 51.2827 362.091 45.3093 364.821 40.36C367.637 35.4107 371.477 31.6133 376.341 28.968C381.291 26.3227 387.008 25 393.493 25ZM393.493 38.056C388.715 38.056 384.96 39.7627 382.229 43.176C379.584 46.504 378.261 51.5387 378.261 58.28C378.261 65.0213 379.584 70.0987 382.229 73.512C384.96 76.84 388.715 78.504 393.493 78.504C398.187 78.504 401.856 76.84 404.501 73.512C407.232 70.0987 408.597 65.0213 408.597 58.28C408.597 51.5387 407.232 46.504 404.501 43.176C401.856 39.7627 398.187 38.056 393.493 38.056Z" fill="#1F2937"/>
<path fill-rule="evenodd" clip-rule="evenodd" d="M57.3104 34.9219C50.772 38.4356 46.2033 44.1577 44.0164 50.6869L28.8448 45.6053C32.2736 35.3683 39.4707 26.3448 49.7366 20.8281C71.1421 9.32503 97.8197 17.3526 109.323 38.7581C120.826 60.1636 112.798 86.8413 91.3927 98.3443C76.1832 106.518 58.3245 104.823 45.1468 95.5115L54.3797 82.4443C62.7946 88.39 74.157 89.4426 83.8189 84.2504C97.4406 76.9303 102.549 59.9536 95.2289 46.3319C87.9088 32.7103 70.9321 27.6018 57.3104 34.9219Z" fill="#1D4ED8"/>
<path d="M15 32L63 53L23 72L15 32Z" fill="#1D4ED8"/>
</svg>
